Coordinates
version=1
nRows=7
nColumns=40
inDegrees=yes

Units are S.I. units (second, meters, Newtons, ...)
If the header above contains a line with 'inDegrees', this indicates whether rotational values are in degrees (yes) or radians (no).

endheader
time	pelvis_tilt	pelvis_list	pelvis_rotation	pelvis_tx	pelvis_ty	pelvis_tz	hip_flexion_r	hip_adduction_r	hip_rotation_r	knee_angle_r	knee_angle_r_beta	ankle_angle_r	subtalar_angle_r	mtp_angle_r	hip_flexion_l	hip_adduction_l	hip_rotation_l	knee_angle_l	knee_angle_l_beta	ankle_angle_l	subtalar_angle_l	mtp_angle_l	lumbar_extension	lumbar_bending	lumbar_rotation	arm_flex_r	arm_add_r	arm_rot_r	elbow_flex_r	pro_sup_r	wrist_flex_r	wrist_dev_r	arm_flex_l	arm_add_l	arm_rot_l	elbow_flex_l	pro_sup_l	wrist_flex_l	wrist_dev_l
      0.61500000	      1.51149817	     -6.81704917	     -6.09206540	      0.11091996	      0.92169998	      0.27872725	    -15.83491357	      6.41868318	    -12.28578848	      5.80949410	      0.10139480	      8.11390776	      9.60343166	      0.00000000	     26.64123367	    -17.08120680	    -24.39040222	     19.10371782	      0.33342278	      2.37496794	      9.96455715	      0.00000000	     -5.18028170	      6.66054732	     -0.92681500	     44.30279116	    -16.21957864	     44.30279116	     75.17320709	     44.97607290	      0.00000000	      0.00000000	     44.30279116	    -16.21957864	     44.30279116	     75.17320709	     44.97607290	      0.00000000	      0.00000000
      0.62000000	      1.21075628	     -7.18327944	     -5.96441878	      0.11704222	      0.91986541	      0.27772250	    -15.90206531	      6.73901958	    -12.45467647	      5.96235159	      0.10406267	      8.19866200	      9.82830691	      0.00000000	     27.20287102	    -17.18786812	    -24.09806873	     17.83141401	      0.31121688	      2.25916416	     11.30052870	      0.00000000	     -4.98060405	      7.03760287	     -1.29623142	     44.30328665	    -16.21814602	     44.30328665	     75.17280901	     44.97622548	      0.00000000	      0.00000000	     44.30328665	    -16.21814602	     44.30328665	     75.17280901	     44.97622548	      0.00000000	      0.00000000
      0.62500000	      0.91854073	     -7.53285169	     -5.87279648	      0.12327760	      0.91807269	      0.27668816	    -15.98248275	      7.01704601	    -12.61060023	      6.12171265	      0.10684404	      8.32307700	     10.07678493	      0.00000000	     27.73879622	    -17.29551863	    -23.88089929	     16.64853699	      0.29057179	      2.14063009	     12.47228343	      0.00000000	     -4.76678951	      7.40787985	     -1.68534125	     44.30376952	    -16.21675053	     44.30376952	     75.17242171	     44.97637330	      0.00000000	      0.00000000	     44.30376952	    -16.21675053	     44.30376952	     75.17242171	     44.97637330	      0.00000000	      0.00000000
      0.63000000	      0.64269642	     -7.85185801	     -5.76281277	      0.12957327	      0.91628947	      0.27554400	    -16.05424149	      7.24679797	    -12.83764892	      6.32658671	      0.11041977	      8.43729725	     10.36088258	      0.00000000	     28.25032383	    -17.35270509	    -23.62917825	     15.53975352	      0.27121986	      2.01368037	     13.57269921	      0.00000000	     -4.57350542	      7.73160592	     -2.11437288	     44.30436614	    -16.21502717	     44.30436614	     75.17194399	     44.97655484	      0.00000000	      0.00000000	     44.30436614	    -16.21502717	     44.30436614	     75.17194399	     44.97655484	      0.00000000	      0.00000000
      0.63500000	      0.35780314	     -8.08098058	     -5.48916738	      0.13602187	      0.91438141	      0.27397071	    -15.94912026	      7.31834595	    -13.66497423	      6.88079762	      0.12009257	      8.83784501	     11.26871831	      0.00000000	     28.80172871	    -17.19568812	    -23.13800799	     14.47723891	      0.25267549	      1.86718695	     14.34050452	      0.00000000	     -4.29192417	      7.76923309	     -3.10171811	     44.30727322	    -16.20664084	     44.30727322	     75.16962667	     44.97742515	      0.00000000	      0.00000000	     44.30727322	    -16.20664084	     44.30727322	     75.16962667	     44.97742515	      0.00000000	      0.00000000
      0.64000000	      0.12499138	     -8.33680242	     -5.50162445	      0.14252879	      0.91276795	      0.27298384	    -16.09634834	      7.45248067	    -13.63476230	      7.04135206	      0.12289478	      8.88452923	     11.39475173	      0.00000000	     29.18178498	    -17.26292866	    -23.01947138	     13.54491048	      0.23640328	      1.80502018	     15.24547304	      0.00000000	     -4.10590641	      8.07867650	     -3.30748990	     44.30759424	    -16.20571651	     44.30759424	     75.16937241	     44.97751912	      0.00000000	      0.00000000	     44.30759424	    -16.20571651	     44.30759424	     75.16937241	     44.97751912	      0.00000000	      0.00000000
      0.64500000	     -0.07061639	     -8.55004983	     -5.46812702	      0.14907170	      0.91123125	      0.27188200	    -16.25052598	      7.53069287	    -13.69189142	      7.25247961	      0.12657965	      8.87900464	     11.55471014	      0.00000000	     29.51506068	    -17.26122354	    -22.81564400	     12.68453371	      0.22138688	      1.69099903	     16.11073570	      0.00000000	     -3.97274356	      8.32192255	     -3.53710934	     44.30799625	    -16.20455938	     44.30799625	     75.16905437	     44.97763629	      0.00000000	      0.00000000	     44.30799625	    -16.20455938	     44.30799625	     75.16905437	     44.97763629	      0.00000000	      0.00000000
